<svg width="115" height="46" viewBox="0 0 115 46" fill="none" xmlns="http://www.w3.org/2000/svg">
<path d="M19.5332 7.25977C21.6078 7.25978 23.29 8.94201 23.29 11.0166V28.9844C23.2899 31.0589 21.6077 32.7402 19.5332 32.7402H3.75684C1.68231 32.7402 0.000105667 31.0589 0 28.9844V11.0166C0 8.94201 1.68224 7.25977 3.75684 7.25977H7.40723L3.38086 13.959H8.51465V26.6055H14.7754V13.959H8.57715L12.334 7.25977H19.5332Z" fill="#FF5503"/>
<path d="M28.8655 32C28.6169 32 28.4135 31.9209 28.2553 31.7627C28.0972 31.6045 28.0181 31.4011 28.0181 31.1525V15.2204C28.0181 14.9718 28.0972 14.7684 28.2553 14.6102C28.4135 14.4521 28.6169 14.373 28.8655 14.373H32.7638C33.0124 14.373 33.2158 14.4521 33.374 14.6102C33.5322 14.7684 33.6113 14.9718 33.6113 15.2204V16.5085C34.1988 15.808 34.9672 15.2204 35.9163 14.7458C36.8655 14.2713 37.9841 14.034 39.2722 14.034C40.583 14.034 41.7355 14.3278 42.7299 14.9153C43.7468 15.5029 44.5378 16.3729 45.1027 17.5255C45.6903 18.6554 45.9841 20.0452 45.9841 21.695V31.1525C45.9841 31.4011 45.8937 31.6045 45.7129 31.7627C45.5547 31.9209 45.3626 32 45.1366 32H40.8655C40.6395 32 40.4361 31.9209 40.2553 31.7627C40.0971 31.6045 40.018 31.4011 40.018 31.1525V21.8983C40.018 20.8362 39.7581 20.0226 39.2383 19.4577C38.7412 18.8701 37.9954 18.5763 37.0011 18.5763C36.0745 18.5763 35.3288 18.8701 34.7638 19.4577C34.2214 20.0226 33.9502 20.8362 33.9502 21.8983V31.1525C33.9502 31.4011 33.8598 31.6045 33.6791 31.7627C33.5209 31.9209 33.3288 32 33.1028 32H28.8655ZM57.9027 32.339C55.2361 32.339 53.1118 31.6158 51.5299 30.1695C49.948 28.7232 49.1231 26.5763 49.0553 23.7288C49.0553 23.5707 49.0553 23.3673 49.0553 23.1187C49.0553 22.8701 49.0553 22.678 49.0553 22.5424C49.1231 20.7571 49.5186 19.2317 50.2417 17.9662C50.9875 16.678 52.0044 15.7063 53.2926 15.0509C54.6033 14.373 56.1287 14.034 57.8688 14.034C59.8575 14.034 61.4959 14.4295 62.7841 15.2204C64.0948 16.0114 65.0778 17.0848 65.7332 18.4407C66.3886 19.7967 66.7162 21.3447 66.7162 23.0848V23.8983C66.7162 24.1469 66.6259 24.3503 66.4451 24.5085C66.2869 24.6667 66.0948 24.7458 65.8688 24.7458H55.0214C55.0214 24.7684 55.0214 24.8023 55.0214 24.8475C55.0214 24.8927 55.0214 24.9379 55.0214 24.9831C55.044 25.6384 55.157 26.2373 55.3604 26.7797C55.5638 27.3221 55.8801 27.7514 56.3095 28.0678C56.7389 28.3842 57.2587 28.5424 57.8688 28.5424C58.3208 28.5424 58.6937 28.4746 58.9875 28.339C59.3039 28.1808 59.5637 28.0113 59.7671 27.8305C59.9705 27.6271 60.1287 27.4576 60.2417 27.3221C60.4451 27.0961 60.6033 26.9605 60.7163 26.9153C60.8519 26.8475 61.0553 26.8136 61.3264 26.8136H65.5298C65.7558 26.8136 65.9366 26.8814 66.0722 27.017C66.2304 27.13 66.2982 27.2995 66.2756 27.5254C66.253 27.9096 66.0609 28.3729 65.6993 28.9153C65.3377 29.4576 64.8067 30 64.1061 30.5424C63.4281 31.0622 62.5694 31.4915 61.5298 31.8305C60.4903 32.1695 59.2813 32.339 57.9027 32.339ZM55.0214 21.3899H60.7502V21.3221C60.7502 20.5989 60.6372 19.9662 60.4112 19.4238C60.2078 18.8814 59.8801 18.4633 59.4281 18.1696C58.9988 17.8758 58.479 17.7289 57.8688 17.7289C57.2587 17.7289 56.7389 17.8758 56.3095 18.1696C55.9027 18.4633 55.5864 18.8814 55.3604 19.4238C55.1344 19.9662 55.0214 20.5989 55.0214 21.3221V21.3899ZM80.1992 32.339C78.1654 32.339 76.3801 32.0113 74.8433 31.3559C73.3292 30.678 72.1541 29.6497 71.3179 28.2712C70.4818 26.8701 70.0637 25.0961 70.0637 22.9492V9.11874C70.0637 8.87015 70.1428 8.66677 70.301 8.50858C70.4592 8.35038 70.6626 8.27129 70.9111 8.27129H75.284C75.5326 8.27129 75.736 8.35038 75.8942 8.50858C76.0524 8.66677 76.1315 8.87015 76.1315 9.11874V22.9153C76.1315 24.3842 76.4817 25.4916 77.1823 26.2373C77.9055 26.9605 78.9111 27.3221 80.1992 27.3221C81.4648 27.3221 82.4478 26.9605 83.1484 26.2373C83.8715 25.4916 84.2331 24.3842 84.2331 22.9153V9.11874C84.2331 8.87015 84.3122 8.66677 84.4704 8.50858C84.6512 8.35038 84.8546 8.27129 85.0806 8.27129H89.4873C89.7133 8.27129 89.9054 8.35038 90.0636 8.50858C90.2444 8.66677 90.3348 8.87015 90.3348 9.11874V22.9492C90.3348 25.0961 89.9167 26.8701 89.0806 28.2712C88.2444 29.6497 87.0693 30.678 85.5552 31.3559C84.041 32.0113 82.2557 32.339 80.1992 32.339ZM95.3046 38.4407C95.056 38.4407 94.8526 38.3616 94.6944 38.2034C94.5362 38.0452 94.4571 37.8418 94.4571 37.5932V15.2204C94.4571 14.9718 94.5362 14.7684 94.6944 14.6102C94.8526 14.4521 95.056 14.373 95.3046 14.373H99.1351C99.3611 14.373 99.5531 14.4521 99.7113 14.6102C99.8921 14.7684 99.9825 14.9718 99.9825 15.2204V16.4746C100.502 15.7741 101.192 15.1978 102.05 14.7458C102.909 14.2713 103.971 14.034 105.237 14.034C106.367 14.034 107.361 14.2148 108.22 14.5763C109.079 14.9153 109.813 15.4238 110.423 16.1018C111.033 16.7797 111.508 17.6046 111.847 18.5763C112.208 19.5481 112.412 20.6667 112.457 21.9322C112.48 22.3842 112.491 22.8023 112.491 23.1865C112.491 23.5707 112.48 23.9887 112.457 24.4407C112.412 25.661 112.22 26.7571 111.881 27.7288C111.542 28.7006 111.067 29.5254 110.457 30.2034C109.847 30.8814 109.101 31.4124 108.22 31.7966C107.361 32.1582 106.367 32.339 105.237 32.339C104.129 32.339 103.158 32.1469 102.321 31.7627C101.508 31.3559 100.83 30.791 100.288 30.0678V37.5932C100.288 37.8418 100.209 38.0452 100.05 38.2034C99.8921 38.3616 99.6887 38.4407 99.4402 38.4407H95.3046ZM103.406 27.7966C104.175 27.7966 104.773 27.6384 105.203 27.3221C105.632 27.0057 105.937 26.5763 106.118 26.0339C106.321 25.4916 106.446 24.8927 106.491 24.2373C106.536 23.5368 106.536 22.8362 106.491 22.1356C106.446 21.4803 106.321 20.8814 106.118 20.339C105.937 19.7967 105.632 19.3673 105.203 19.0509C104.773 18.7345 104.175 18.5763 103.406 18.5763C102.66 18.5763 102.062 18.7458 101.61 19.0848C101.158 19.4012 100.83 19.8193 100.627 20.339C100.423 20.8588 100.31 21.4238 100.288 22.0339C100.265 22.4633 100.254 22.8814 100.254 23.2882C100.254 23.695 100.265 24.1243 100.288 24.5763C100.31 25.1413 100.434 25.6723 100.66 26.1695C100.886 26.6441 101.225 27.0396 101.677 27.356C102.129 27.6497 102.706 27.7966 103.406 27.7966Z" fill="white"/>
<path d="M33.0455 45.4861C32.2211 45.4861 31.5138 45.3516 30.9237 45.0826C30.3423 44.8136 29.8867 44.4187 29.5569 43.8981C29.2359 43.3774 29.058 42.7309 29.0232 41.9585C29.0146 41.6028 29.0102 41.2209 29.0102 40.8131C29.0102 40.4052 29.0146 40.0147 29.0232 39.6415C29.058 38.8866 29.2402 38.2487 29.57 37.7281C29.8997 37.1987 30.3596 36.7995 30.9497 36.5305C31.5398 36.2528 32.2384 36.114 33.0455 36.114C33.6182 36.114 34.1476 36.1877 34.6335 36.3352C35.1195 36.4741 35.5447 36.6824 35.9092 36.9601C36.2737 37.2291 36.5557 37.5588 36.7553 37.9493C36.9636 38.3312 37.072 38.7651 37.0807 39.251C37.0894 39.3291 37.0633 39.3942 37.0026 39.4463C36.9505 39.4984 36.8855 39.5244 36.8074 39.5244H35.0501C34.9373 39.5244 34.8505 39.5027 34.7897 39.4593C34.729 39.4072 34.6769 39.3161 34.6335 39.1859C34.512 38.726 34.3124 38.4136 34.0348 38.2487C33.7657 38.0752 33.4316 37.9884 33.0325 37.9884C32.5552 37.9884 32.1777 38.1229 31.9 38.3919C31.6223 38.6523 31.4704 39.0905 31.4444 39.7066C31.4184 40.4182 31.4184 41.1472 31.4444 41.8935C31.4704 42.5096 31.6223 42.9522 31.9 43.2212C32.1777 43.4815 32.5552 43.6117 33.0325 43.6117C33.4316 43.6117 33.7701 43.5249 34.0478 43.3514C34.3255 43.1778 34.5207 42.8654 34.6335 42.4141C34.6682 42.284 34.716 42.1972 34.7767 42.1538C34.8461 42.1017 34.9373 42.0757 35.0501 42.0757H36.8074C36.8855 42.0757 36.9505 42.1017 37.0026 42.1538C37.0633 42.2059 37.0894 42.271 37.0807 42.3491C37.072 42.835 36.9636 43.2733 36.7553 43.6638C36.5557 44.0456 36.2737 44.3754 35.9092 44.653C35.5447 44.9221 35.1195 45.1303 34.6335 45.2779C34.1476 45.4167 33.6182 45.4861 33.0455 45.4861ZM38.6316 45.356C38.5362 45.356 38.4581 45.3256 38.3973 45.2648C38.3366 45.2041 38.3062 45.126 38.3062 45.0305V38.9126C38.3062 38.8258 38.3366 38.7521 38.3973 38.6913C38.4581 38.6219 38.5362 38.5872 38.6316 38.5872H40.1286C40.224 38.5872 40.3021 38.6219 40.3629 38.6913C40.4236 38.7521 40.454 38.8258 40.454 38.9126V39.4333C40.6883 39.1643 40.966 38.956 41.2871 38.8085C41.6169 38.6609 41.9857 38.5872 42.3935 38.5872H42.9663C43.0531 38.5872 43.1268 38.6175 43.1876 38.6783C43.257 38.739 43.2917 38.8171 43.2917 38.9126V40.2533C43.2917 40.3401 43.257 40.4182 43.1876 40.4876C43.1268 40.5484 43.0531 40.5788 42.9663 40.5788H41.7036C41.3478 40.5788 41.0701 40.6786 40.8706 40.8781C40.6796 41.0691 40.5842 41.3424 40.5842 41.6982V45.0305C40.5842 45.126 40.5495 45.2041 40.48 45.2648C40.4193 45.3256 40.3412 45.356 40.2457 45.356H38.6316ZM47.2904 45.4861C46.2664 45.4861 45.4507 45.2084 44.8432 44.653C44.2358 44.0977 43.919 43.2733 43.893 42.1798C43.893 42.1191 43.893 42.041 43.893 41.9455C43.893 41.8501 43.893 41.7763 43.893 41.7242C43.919 41.0387 44.0709 40.4529 44.3486 39.967C44.635 39.4723 45.0255 39.0992 45.5201 38.8475C46.0234 38.5872 46.6092 38.457 47.2774 38.457C48.0411 38.457 48.6702 38.6089 49.1649 38.9126C49.6682 39.2163 50.0457 39.6285 50.2973 40.1492C50.549 40.6699 50.6748 41.2643 50.6748 41.9325V42.2449C50.6748 42.3404 50.6401 42.4185 50.5707 42.4792C50.5099 42.54 50.4362 42.5703 50.3494 42.5703H46.184C46.184 42.579 46.184 42.592 46.184 42.6094C46.184 42.6267 46.184 42.6441 46.184 42.6615C46.1927 42.9131 46.2361 43.1431 46.3142 43.3514C46.3923 43.5596 46.5138 43.7245 46.6786 43.846C46.8435 43.9675 47.0431 44.0282 47.2774 44.0282C47.451 44.0282 47.5942 44.0022 47.707 43.9501C47.8285 43.8894 47.9283 43.8243 48.0064 43.7549C48.0845 43.6768 48.1452 43.6117 48.1886 43.5596C48.2667 43.4728 48.3274 43.4208 48.3708 43.4034C48.4229 43.3774 48.501 43.3644 48.6051 43.3644H50.2192C50.306 43.3644 50.3754 43.3904 50.4275 43.4425C50.4882 43.4859 50.5143 43.5509 50.5056 43.6377C50.4969 43.7853 50.4232 43.9631 50.2843 44.1714C50.1455 44.3797 49.9415 44.588 49.6725 44.7962C49.4122 44.9958 49.0824 45.1607 48.6832 45.2909C48.284 45.421 47.8198 45.4861 47.2904 45.4861ZM46.184 41.2817H48.3838V41.2556C48.3838 40.9779 48.3405 40.735 48.2537 40.5267C48.1756 40.3184 48.0497 40.1579 47.8762 40.0451C47.7113 39.9323 47.5117 39.8758 47.2774 39.8758C47.0431 39.8758 46.8435 39.9323 46.6786 40.0451C46.5224 40.1579 46.4009 40.3184 46.3142 40.5267C46.2274 40.735 46.184 40.9779 46.184 41.2556V41.2817ZM53.9258 45.4861C53.4572 45.4861 53.0363 45.3993 52.6631 45.2258C52.2987 45.0436 52.008 44.8006 51.791 44.4968C51.5741 44.1931 51.4656 43.8503 51.4656 43.4685C51.4656 42.8524 51.7173 42.3664 52.2206 42.0106C52.7239 41.6461 53.3921 41.3988 54.2252 41.2687L55.8523 41.0213V40.8391C55.8523 40.5267 55.7872 40.288 55.657 40.1232C55.5269 39.9583 55.2882 39.8758 54.9411 39.8758C54.6981 39.8758 54.4985 39.9236 54.3423 40.019C54.1948 40.1145 54.0776 40.2447 53.9909 40.4095C53.9128 40.5224 53.8043 40.5788 53.6654 40.5788H52.2076C52.1121 40.5788 52.0383 40.5527 51.9863 40.5007C51.9342 40.4399 51.9125 40.3705 51.9212 40.2924C51.9212 40.1362 51.9776 39.9583 52.0904 39.7587C52.2119 39.5504 52.3941 39.3465 52.6371 39.1469C52.8801 38.9473 53.1925 38.7824 53.5743 38.6523C53.9562 38.5221 54.4161 38.457 54.9541 38.457C55.5182 38.457 55.9998 38.5221 56.399 38.6523C56.7982 38.7824 57.1193 38.9647 57.3622 39.199C57.6139 39.4333 57.8005 39.711 57.922 40.032C58.0435 40.3445 58.1042 40.6916 58.1042 41.0734V45.0305C58.1042 45.126 58.0695 45.2041 58.0001 45.2648C57.9393 45.3256 57.8656 45.356 57.7788 45.356H56.2688C56.1734 45.356 56.0953 45.3256 56.0345 45.2648C55.9738 45.2041 55.9434 45.126 55.9434 45.0305V44.5749C55.8306 44.7398 55.6787 44.8917 55.4878 45.0305C55.2969 45.1694 55.0713 45.2779 54.8109 45.356C54.5593 45.4427 54.2642 45.4861 53.9258 45.4861ZM54.5376 44.0022C54.7892 44.0022 55.0149 43.9501 55.2145 43.846C55.4227 43.7332 55.5833 43.564 55.6961 43.3383C55.8176 43.104 55.8783 42.8133 55.8783 42.4662V42.284L54.7719 42.4792C54.364 42.5486 54.0646 42.6571 53.8737 42.8046C53.6915 42.9435 53.6004 43.1084 53.6004 43.2993C53.6004 43.4468 53.6438 43.5726 53.7305 43.6768C53.8173 43.7809 53.9301 43.8634 54.069 43.9241C54.2078 43.9762 54.364 44.0022 54.5376 44.0022ZM62.9847 45.356C62.4293 45.356 61.9477 45.2692 61.5399 45.0956C61.1407 44.9134 60.8326 44.6357 60.6157 44.2625C60.3987 43.8807 60.2902 43.3904 60.2902 42.7916V40.2924H59.2749C59.1795 40.2924 59.097 40.262 59.0276 40.2013C58.9668 40.1405 58.9365 40.0624 58.9365 39.967V38.9126C58.9365 38.8171 58.9668 38.739 59.0276 38.6783C59.097 38.6175 59.1795 38.5872 59.2749 38.5872H60.2902V36.4394C60.2902 36.3439 60.3206 36.2658 60.3814 36.2051C60.4508 36.1443 60.5289 36.114 60.6157 36.114H62.1256C62.2211 36.114 62.2992 36.1443 62.3599 36.2051C62.4207 36.2658 62.451 36.3439 62.451 36.4394V38.5872H64.0781C64.1736 38.5872 64.2517 38.6175 64.3125 38.6783C64.3732 38.739 64.4036 38.8171 64.4036 38.9126V39.967C64.4036 40.0624 64.3732 40.1405 64.3125 40.2013C64.2517 40.262 64.1736 40.2924 64.0781 40.2924H62.451V42.6094C62.451 42.9044 62.5074 43.1387 62.6203 43.3123C62.7331 43.4859 62.924 43.5726 63.193 43.5726H64.1953C64.2908 43.5726 64.3689 43.603 64.4296 43.6638C64.4904 43.7245 64.5207 43.8026 64.5207 43.8981V45.0305C64.5207 45.126 64.4904 45.2041 64.4296 45.2648C64.3689 45.3256 64.2908 45.356 64.1953 45.356H62.9847ZM65.9239 45.356C65.8284 45.356 65.7503 45.3256 65.6896 45.2648C65.6289 45.2041 65.5985 45.126 65.5985 45.0305V38.9126C65.5985 38.8171 65.6289 38.739 65.6896 38.6783C65.7503 38.6175 65.8284 38.5872 65.9239 38.5872H67.4599C67.5467 38.5872 67.6204 38.6175 67.6812 38.6783C67.7506 38.739 67.7853 38.8171 67.7853 38.9126V45.0305C67.7853 45.126 67.7506 45.2041 67.6812 45.2648C67.6204 45.3256 67.5467 45.356 67.4599 45.356H65.9239ZM65.9109 37.6109C65.8154 37.6109 65.7373 37.5805 65.6766 37.5198C65.6158 37.459 65.5855 37.3809 65.5855 37.2855V36.127C65.5855 36.0315 65.6158 35.9534 65.6766 35.8927C65.7373 35.8233 65.8154 35.7885 65.9109 35.7885H67.4599C67.5554 35.7885 67.6335 35.8233 67.6942 35.8927C67.7636 35.9534 67.7983 36.0315 67.7983 36.127V37.2855C67.7983 37.3809 67.7636 37.459 67.6942 37.5198C67.6335 37.5805 67.5554 37.6109 67.4599 37.6109H65.9109ZM71.7185 45.356C71.5883 45.356 71.4928 45.3256 71.4321 45.2648C71.3713 45.1954 71.3193 45.1173 71.2759 45.0305L68.8157 38.9907C68.7983 38.956 68.7897 38.9169 68.7897 38.8735C68.7897 38.7954 68.8157 38.7304 68.8678 38.6783C68.9285 38.6175 69.0023 38.5872 69.089 38.5872H70.56C70.6728 38.5872 70.7595 38.6175 70.8203 38.6783C70.881 38.739 70.9201 38.7998 70.9374 38.8605L72.4084 42.8567L73.8923 38.8605C73.9096 38.7998 73.9487 38.739 74.0094 38.6783C74.0702 38.6175 74.157 38.5872 74.2698 38.5872H75.7407C75.8188 38.5872 75.8882 38.6175 75.9489 38.6783C76.0097 38.7304 76.0401 38.7954 76.0401 38.8735C76.0401 38.9169 76.0314 38.956 76.014 38.9907L73.5538 45.0305C73.5191 45.1173 73.4671 45.1954 73.3976 45.2648C73.3369 45.3256 73.2371 45.356 73.0982 45.356H71.7185ZM79.9216 45.4861C78.8976 45.4861 78.0819 45.2084 77.4745 44.653C76.867 44.0977 76.5503 43.2733 76.5242 42.1798C76.5242 42.1191 76.5242 42.041 76.5242 41.9455C76.5242 41.8501 76.5242 41.7763 76.5242 41.7242C76.5503 41.0387 76.7021 40.4529 76.9798 39.967C77.2662 39.4723 77.6567 39.0992 78.1513 38.8475C78.6547 38.5872 79.2404 38.457 79.9086 38.457C80.6723 38.457 81.3014 38.6089 81.7961 38.9126C82.2994 39.2163 82.6769 39.6285 82.9285 40.1492C83.1802 40.6699 83.306 41.2643 83.306 41.9325V42.2449C83.306 42.3404 83.2713 42.4185 83.2019 42.4792C83.1412 42.54 83.0674 42.5703 82.9806 42.5703H78.8152C78.8152 42.579 78.8152 42.592 78.8152 42.6094C78.8152 42.6267 78.8152 42.6441 78.8152 42.6615C78.8239 42.9131 78.8673 43.1431 78.9454 43.3514C79.0235 43.5596 79.145 43.7245 79.3098 43.846C79.4747 43.9675 79.6743 44.0282 79.9086 44.0282C80.0822 44.0282 80.2254 44.0022 80.3382 43.9501C80.4597 43.8894 80.5595 43.8243 80.6376 43.7549C80.7157 43.6768 80.7764 43.6117 80.8198 43.5596C80.8979 43.4728 80.9587 43.4208 81.002 43.4034C81.0541 43.3774 81.1322 43.3644 81.2363 43.3644H82.8504C82.9372 43.3644 83.0066 43.3904 83.0587 43.4425C83.1195 43.4859 83.1455 43.5509 83.1368 43.6377C83.1281 43.7853 83.0544 43.9631 82.9155 44.1714C82.7767 44.3797 82.5727 44.588 82.3037 44.7962C82.0434 44.9958 81.7136 45.1607 81.3144 45.2909C80.9153 45.421 80.451 45.4861 79.9216 45.4861ZM78.8152 41.2817H81.0151V41.2556C81.0151 40.9779 80.9717 40.735 80.8849 40.5267C80.8068 40.3184 80.681 40.1579 80.5074 40.0451C80.3425 39.9323 80.1429 39.8758 79.9086 39.8758C79.6743 39.8758 79.4747 39.9323 79.3098 40.0451C79.1536 40.1579 79.0322 40.3184 78.9454 40.5267C78.8586 40.735 78.8152 40.9779 78.8152 41.2556V41.2817ZM87.312 45.4861C86.7479 45.4861 86.2663 45.4254 85.8671 45.3039C85.4766 45.1737 85.1555 45.0175 84.9039 44.8353C84.6609 44.653 84.4786 44.4665 84.3571 44.2756C84.2357 44.076 84.1706 43.9067 84.1619 43.7679C84.1532 43.6724 84.1836 43.5943 84.253 43.5336C84.3224 43.4642 84.3962 43.4295 84.4743 43.4295H85.9582C85.9843 43.4295 86.006 43.4338 86.0233 43.4425C86.0407 43.4512 86.0667 43.4685 86.1014 43.4945C86.2142 43.5553 86.327 43.6334 86.4398 43.7288C86.5527 43.8156 86.6828 43.8937 86.8304 43.9631C86.9779 44.0326 87.1558 44.0673 87.364 44.0673C87.607 44.0673 87.811 44.0196 87.9758 43.9241C88.1407 43.8286 88.2232 43.6855 88.2232 43.4945C88.2232 43.3557 88.1841 43.2429 88.106 43.1561C88.0279 43.0606 87.8674 42.9695 87.6244 42.8827C87.3901 42.796 87.0343 42.7092 86.557 42.6224C86.1057 42.5183 85.7109 42.3838 85.3725 42.2189C85.034 42.0453 84.7737 41.824 84.5915 41.555C84.4092 41.2773 84.3181 40.9432 84.3181 40.5527C84.3181 40.2056 84.4309 39.8715 84.6565 39.5504C84.8822 39.2293 85.2119 38.969 85.6458 38.7694C86.0797 38.5611 86.6134 38.457 87.2469 38.457C87.7502 38.457 88.1841 38.5177 88.5486 38.6392C88.9217 38.7521 89.2341 38.8996 89.4858 39.0818C89.7461 39.2641 89.9414 39.4506 90.0716 39.6415C90.2017 39.8325 90.2712 40.006 90.2798 40.1622C90.2885 40.249 90.2625 40.3271 90.2017 40.3965C90.141 40.4573 90.0716 40.4876 89.9935 40.4876H88.6397C88.605 40.4876 88.5703 40.4833 88.5356 40.4746C88.5009 40.4573 88.4705 40.4399 88.4445 40.4226C88.3403 40.3705 88.2362 40.3011 88.132 40.2143C88.0279 40.1275 87.9064 40.0494 87.7676 39.98C87.6287 39.9106 87.4552 39.8758 87.2469 39.8758C87.0126 39.8758 86.8304 39.9279 86.7002 40.032C86.57 40.1362 86.5049 40.2707 86.5049 40.4356C86.5049 40.5484 86.5396 40.6525 86.6091 40.748C86.6872 40.8434 86.839 40.9302 87.0647 41.0083C87.299 41.0864 87.6591 41.1732 88.1451 41.2687C88.7438 41.3641 89.2211 41.5203 89.5769 41.7373C89.9327 41.9455 90.1844 42.1929 90.3319 42.4792C90.4794 42.7569 90.5532 43.052 90.5532 43.3644C90.5532 43.7809 90.4274 44.1497 90.1757 44.4708C89.9327 44.7919 89.5682 45.0436 89.0823 45.2258C88.5963 45.3993 88.0062 45.4861 87.312 45.4861Z" fill="#E8E8E8"/>
</svg>
